<svg width="48" height="46" viewBox="0 0 48 46" fill="none" xmlns="http://www.w3.org/2000/svg">
    <path fill-rule="evenodd" clip-rule="evenodd" d="M36.3682 9.06976C35.5939 9.84365 35.057 10.567 34.253 11.266C33.5679 10.4443 32.7568 9.648 32.0473 9.1469C32.8639 8.71347 37.5777 7.86094 36.3682 9.06976ZM17.0553 27.9496C15.8702 36.1462 17.8279 43.9936 19.8309 44.0687C21.7314 44.1399 20.8975 40.539 22.3592 40.5413C24.5922 40.5446 24.8758 45.4582 26.7921 45.4219C28.1011 45.397 27.8868 42.2336 29.2468 40.9598C30.2859 39.9865 33.4527 39.7777 35.9164 41.7788C37.7414 43.2612 40.2707 45.4486 41.4714 45.44C43.3291 45.4269 41.1022 41.8684 38.1718 33.5769C42.978 32.7529 46.3879 30.846 47.7631 24.8885C48.6381 21.0978 47.0575 17.8369 43.5531 17.0378C41.8235 16.6434 40.2048 17.2449 40.2261 18.9798C40.2515 21.064 45.0217 20.8963 44.7731 25.1098C44.2404 34.1342 30.7567 30.9734 24.7658 28.8474C23.462 28.3847 22.5587 27.6779 24.8279 27.6524C27.5208 27.6224 31.8017 27.2179 33.9114 25.6042C37.5625 22.8118 37.2645 17.1466 35.2949 12.4008C37.5439 9.88028 38.5359 8.53344 39.9218 6.15425C35.8193 5.78514 32.3947 6.11901 29.2943 7.53599C29.1912 7.50184 29.0871 7.46823 28.9813 7.43537C24.727 6.11579 19.7171 5.32293 15.2727 6.02927L15.3144 5.11392C15.4511 3.32331 15.4728 1.64732 15.4786 0C11.2457 2.45558 6.89246 7.97729 4.98372 12.4071C4.25009 14.1104 3.81005 16.0436 3.45878 18.0708C2.04303 26.24 17.1669 27.1784 17.0553 27.9496Z" fill="#FF6841"/>
    <path fill-rule="evenodd" clip-rule="evenodd" d="M8.82498 18.7967C9.65754 18.922 10.3585 19.1513 10.296 19.5665C10.2526 19.8544 9.6925 19.7933 9.31565 20.0887C8.88784 20.4239 8.82597 20.7991 8.72319 20.7808C8.21465 20.6898 7.57708 19.6809 7.63951 19.2571C7.70193 18.833 7.99243 18.6713 8.82498 18.7967Z" fill="white"/>
    <path fill-rule="evenodd" clip-rule="evenodd" d="M8.29852 11.7779C6.97453 11.3469 5.62583 13.3557 5.48852 15.338C5.3897 16.7657 7.31366 17.5952 8.85658 17.889C9.59407 15.2165 9.62252 12.2091 8.29852 11.7779Z" fill="white"/>
    <path fill-rule="evenodd" clip-rule="evenodd" d="M18.913 12.3528C21.3283 12.4578 22.1835 15.8261 21.0893 18.2029C20.3013 19.9144 15.8547 19.4003 13.2268 18.8711C13.6235 14.1254 16.4977 12.2478 18.913 12.3528Z" fill="white"/>
    <path d="M7.12159 19.0107C7.23188 19.0243 7.31007 19.1227 7.29618 19.2306C7.28217 19.3383 7.18137 19.4147 7.07097 19.4011C6.21437 19.2939 4.72836 19.1651 3.21523 19.1548C2.1632 19.1477 1.10157 19.198 0.237804 19.353C0.1284 19.3726 0.0234088 19.3017 0.00333658 19.1948C-0.0167357 19.0879 0.0558284 18.9854 0.165233 18.9658C1.05856 18.8054 2.14489 18.7534 3.21677 18.7606C4.74513 18.771 6.25165 18.9019 7.12159 19.0107ZM7.18016 20.3809C7.29132 20.373 7.38794 20.4549 7.39599 20.5635C7.40404 20.6721 7.32022 20.7665 7.20905 20.7744C6.36657 20.8311 5.08625 20.9819 3.82875 21.269C2.92682 21.475 2.03714 21.7509 1.33295 22.1122C1.23425 22.1628 1.11216 22.1256 1.06033 22.0291C1.00849 21.9326 1.04654 21.8134 1.14536 21.7628C1.88196 21.3849 2.80485 21.098 3.73755 20.8851C5.02019 20.5922 6.32345 20.4387 7.18016 20.3809ZM6.90576 17.9826C7.00227 18.0364 7.03601 18.1565 6.98098 18.2509C6.92595 18.3453 6.80297 18.3781 6.70636 18.3244C5.952 17.9032 4.87659 17.4358 3.70656 17.0483C2.69721 16.7141 1.61882 16.4404 0.618626 16.309C0.508118 16.2946 0.430474 16.1953 0.445252 16.0873C0.460031 15.9793 0.56172 15.9035 0.672228 15.918C1.69768 16.0527 2.80231 16.3331 3.8357 16.6752C5.02889 17.0703 6.12989 17.5494 6.90576 17.9826Z" fill="#FF6841"/>
    <path fill-rule="evenodd" clip-rule="evenodd" d="M28.2866 29.934C26.9685 29.5837 25.7628 29.2013 24.7656 28.8474C26.2267 30.5614 27.035 34.2672 27.6244 34.3297C27.9135 34.3604 28.7261 31.7684 28.2866 29.934ZM32.5561 30.8371C31.5416 30.6822 30.5355 30.4816 29.5703 30.2555C30.6989 30.9715 30.8064 33.9123 31.3797 33.8912C31.959 33.8699 32.5828 31.7743 32.5828 31.0603C32.5828 30.9895 32.5733 30.9147 32.5561 30.8371Z" fill="#E65535"/>
    <path fill-rule="evenodd" clip-rule="evenodd" d="M19.4654 5.7743C18.0403 5.7381 16.6302 5.81373 15.2727 6.02942C12.8142 7.44845 10.5114 9.86621 11.8636 9.72884C12.1846 9.6962 15.2029 8.30001 17.2327 7.01146C17.9756 6.53978 18.7899 6.1196 19.4654 5.7743ZM27.3507 6.96664C25.7029 6.52976 23.973 6.18295 22.2294 5.97652C18.9148 7.73406 15.9882 10.7372 17.7993 10.7942C18.4385 10.8143 20.8287 9.44581 23.2011 8.36713C24.4277 7.80937 26.0238 7.38391 27.3507 6.96664Z" fill="#E65535"/>
</svg>