<svg width="160" height="33" viewBox="0 0 160 33" fill="none" xmlns="http://www.w3.org/2000/svg">
<path d="M119.907 29.1343C119.546 29.4029 119.102 29.6041 118.577 29.7384C118.051 29.8726 117.497 29.9398 116.917 29.9398C115.41 29.9398 114.245 29.5529 113.421 28.7789C112.597 28.0051 112.184 26.8678 112.184 25.3673V20.1317H110.23V17.2889H112.184V14.1855H115.857V17.2889H119.012V20.1317H115.857V25.32C115.857 25.857 115.995 26.2716 116.269 26.5637C116.544 26.856 116.933 27.0021 117.435 27.0021C118.015 27.0021 118.51 26.8442 118.918 26.5282L119.907 29.1343ZM102.952 27.4523C103.58 27.4523 104.137 27.3062 104.624 27.0139C105.11 26.7218 105.456 26.2914 105.659 25.7228V24.42H103.14C101.634 24.42 100.88 24.9175 100.88 25.9125C100.88 26.3863 101.065 26.7614 101.434 27.0377C101.802 27.314 102.309 27.4523 102.952 27.4523ZM103.235 16.8153C105.197 16.8153 106.703 17.2849 107.755 18.2248C108.807 19.1645 109.333 20.582 109.333 22.4771V29.7502H105.895V28.163C105.204 29.3475 103.917 29.9396 102.034 29.9396C101.061 29.9396 100.217 29.7739 99.5028 29.4423C98.7887 29.1106 98.2432 28.6526 97.8666 28.068C97.4899 27.4837 97.3015 26.8204 97.3015 26.0782C97.3015 24.8937 97.7448 23.9618 98.6316 23.2826C99.5185 22.6035 100.888 22.2639 102.74 22.2639H105.659C105.659 21.4585 105.416 20.8385 104.93 20.4042C104.443 19.9698 103.713 19.7528 102.74 19.7528C102.065 19.7528 101.402 19.8594 100.751 20.0726C100.099 20.2858 99.546 20.5741 99.0908 20.9372L97.7724 18.3551C98.463 17.8654 99.2909 17.4863 100.256 17.2178C101.222 16.9495 102.214 16.8153 103.235 16.8153ZM90.0234 30.0347C88.344 30.0347 86.8254 29.6674 85.4676 28.9329C84.11 28.1984 83.0426 27.1798 82.2658 25.8768C81.4887 24.5739 81.1004 23.1012 81.1004 21.4586C81.1004 19.8161 81.4887 18.3434 82.2658 17.0404C83.0428 15.7375 84.11 14.7188 85.4676 13.9843C86.8254 13.25 88.3518 12.8827 90.0469 12.8827C91.4752 12.8827 92.7662 13.1354 93.9199 13.6409C95.0736 14.1462 96.0427 14.8727 96.8274 15.8204L94.3789 18.0947C93.2646 16.7996 91.8834 16.152 90.2353 16.152C89.215 16.152 88.3048 16.3772 87.5043 16.8272C86.7039 17.2773 86.0799 17.9052 85.6326 18.7105C85.1854 19.5161 84.9616 20.432 84.9616 21.4586C84.9616 22.4853 85.1853 23.4012 85.6326 24.2068C86.0799 25.0122 86.7039 25.64 87.5043 26.09C88.3048 26.54 89.215 26.7654 90.2353 26.7654C91.8834 26.7654 93.2646 26.1098 94.3789 24.7989L96.8274 27.0732C96.0429 28.0365 95.0696 28.771 93.908 29.2764C92.7467 29.7819 91.4517 30.0347 90.0234 30.0347ZM73.9427 18.6394C72.7498 18.6394 71.7492 19.0223 70.9409 19.7883C70.1327 20.5544 69.6736 21.5532 69.5636 22.7852H78.3453C78.2356 21.5532 77.7764 20.5544 76.968 19.7883C76.1596 19.0223 75.1513 18.6394 73.9427 18.6394ZM79.9227 24.0409H69.5636C69.6578 25.336 70.1522 26.3822 71.0469 27.1799C71.9415 27.9774 73.0717 28.3763 74.4372 28.3763C75.2062 28.3763 75.9127 28.2381 76.556 27.9618C77.1996 27.6853 77.7569 27.2787 78.2276 26.7416L79.1694 27.8312C78.6201 28.4946 77.9333 28.9999 77.1094 29.3475C76.2854 29.6949 75.3789 29.8686 74.39 29.8686C73.1187 29.8686 71.9925 29.5962 71.0116 29.0514C70.0307 28.5066 69.2655 27.7522 68.7162 26.7889C68.1668 25.8255 67.8922 24.7358 67.8922 23.5196C67.8922 22.3036 68.1551 21.2138 68.6809 20.2503C69.2068 19.2869 69.9286 18.5366 70.8469 17.9996C71.7651 17.4628 72.7969 17.1943 73.9428 17.1943C75.0887 17.1943 76.1167 17.4628 77.027 17.9996C77.9373 18.5366 78.6515 19.2829 79.1694 20.2384C79.6874 21.194 79.9464 22.2877 79.9464 23.5196L79.9227 24.0409ZM60.3104 17.1943C61.8643 17.1943 63.1003 17.6484 64.0184 18.5564C64.9367 19.4646 65.3957 20.7872 65.3957 22.5246V29.7502H63.7241V22.6903C63.7241 21.3952 63.4024 20.4082 62.7588 19.7291C62.1153 19.0499 61.1971 18.7103 60.0042 18.7103C58.6701 18.7103 57.6146 19.1092 56.8377 19.9067C56.0607 20.7043 55.6722 21.8061 55.6722 23.2116V29.7502H54.0006V12.1719H55.6722V19.4686C56.1274 18.7421 56.7552 18.1813 57.5557 17.7866C58.3561 17.3919 59.2744 17.1943 60.3104 17.1943ZM44.8889 14.683H39.0972V13.1669H52.4228V14.683H46.631V29.7502H44.8889V14.683Z" fill="#233945"/>
<path d="M156.186 13.1669H160V29.7504H156.186V13.1669ZM147.121 22.0509C148.267 22.0509 149.138 21.8021 149.734 21.3046C150.331 20.8072 150.629 20.1004 150.629 19.1842C150.629 18.2525 150.331 17.5378 149.734 17.0403C149.138 16.5428 148.267 16.2939 147.121 16.2939H144.013V22.0507L147.121 22.0509ZM147.333 13.1669C148.793 13.1669 150.06 13.4117 151.135 13.9012C152.21 14.3909 153.038 15.0858 153.619 15.986C154.2 16.8862 154.49 17.9523 154.49 19.1842C154.49 20.4004 154.2 21.4625 153.619 22.3705C153.038 23.2787 152.21 23.9736 151.135 24.4553C150.06 24.9371 148.793 25.1778 147.333 25.1778H144.013V29.7501H140.199V13.1669H147.333ZM132.83 23.2827L130.216 16.9337L127.603 23.2827H132.83ZM134.03 26.1968H126.379L124.919 29.7502H121.011L128.356 13.1667H132.123L139.492 29.7502H135.49L134.03 26.1968Z" fill="#FF6841"/>
<path fill-rule="evenodd" clip-rule="evenodd" d="M24.9717 6.41427C24.44 6.96163 24.0716 7.47319 23.5193 7.96766C23.0489 7.38642 22.4919 6.82324 22.0048 6.46893C22.5655 6.16225 25.8024 5.55926 24.9717 6.41427ZM11.7107 19.7675C10.8969 25.5647 12.2412 31.115 13.6165 31.1681C14.9214 31.2184 14.3489 28.6718 15.3526 28.6734C16.8859 28.6758 17.0806 32.1511 18.3964 32.1254C19.2952 32.1078 19.1479 29.8704 20.0818 28.9694C20.7954 28.2809 22.9698 28.1334 24.6613 29.5487C25.9145 30.5972 27.6512 32.1441 28.4756 32.1381C29.7511 32.1289 28.2222 29.612 26.2099 23.7476C29.5101 23.1648 31.8514 21.8163 32.7957 17.6026C33.3965 14.9216 32.3112 12.6152 29.9049 12.0501C28.7172 11.7711 27.6058 12.1966 27.6204 13.4237C27.638 14.8978 30.9132 14.7792 30.7425 17.7593C30.3767 24.1419 21.1183 21.9063 17.0047 20.4027C16.1094 20.0756 15.4892 19.5755 17.0474 19.5576C18.8965 19.5364 21.8358 19.2503 23.2846 18.1091C25.7917 16.1341 25.587 12.1273 24.2345 8.77071C25.7787 6.988 26.4599 6.03535 27.4114 4.35268C24.5945 4.09154 22.243 4.32775 20.1142 5.32994C20.0434 5.30581 19.9719 5.28199 19.8992 5.25882C16.978 4.32551 13.5379 3.76472 10.4863 4.2643L10.5151 3.6169C10.6088 2.35054 10.6237 1.16504 10.6279 0C7.72127 1.73685 4.73227 5.64221 3.42152 8.77535C2.91774 9.98002 2.61567 11.3474 2.37442 12.7811C1.40275 18.5583 11.7872 19.2219 11.7107 19.7675Z" fill="#FF6841"/>
<path fill-rule="evenodd" clip-rule="evenodd" d="M6.05952 13.2938C6.63128 13.3825 7.1125 13.5445 7.06962 13.8382C7.03976 14.0419 6.65526 13.9987 6.39654 14.2076C6.10272 14.4447 6.06032 14.7102 5.98964 14.6971C5.6404 14.6327 5.20269 13.9191 5.24557 13.6193C5.28829 13.3195 5.48793 13.2052 6.05952 13.2938Z" fill="white"/>
<path fill-rule="evenodd" clip-rule="evenodd" d="M5.69807 8.32979C4.78898 8.02486 3.86289 9.4456 3.76871 10.8478C3.7009 11.8575 5.02197 12.4442 6.0813 12.6519C6.58762 10.7617 6.60716 8.63455 5.69807 8.32979Z" fill="white"/>
<path fill-rule="evenodd" clip-rule="evenodd" d="M12.9863 8.73618C14.6447 8.81049 15.232 11.1928 14.4807 12.8739C13.9397 14.0843 10.8864 13.7208 9.08188 13.3465C9.35441 9.98991 11.3279 8.66202 12.9863 8.73618Z" fill="white"/>
<path d="M4.8898 13.4452C4.96572 13.4548 5.01924 13.5245 5.00972 13.6007C5.00003 13.6771 4.93094 13.731 4.85518 13.7214C4.26691 13.6455 3.24665 13.5544 2.20764 13.5472C1.48532 13.5421 0.756338 13.5777 0.163301 13.6874C0.0880199 13.7013 0.0160754 13.6511 0.00225795 13.5755C-0.0114006 13.4999 0.0383098 13.4273 0.113432 13.4134C0.726798 13.3001 1.47278 13.2632 2.20876 13.2683C3.25808 13.2757 4.29248 13.3682 4.8898 13.4452ZM4.93014 14.4142C5.00654 14.4087 5.07277 14.4666 5.07833 14.5435C5.08389 14.6203 5.02623 14.687 4.95 14.6926C4.37141 14.7327 3.49234 14.8393 2.62883 15.0424C2.00959 15.188 1.39861 15.3833 0.915 15.6387C0.847183 15.6745 0.763327 15.6483 0.72791 15.58C0.692334 15.5118 0.718381 15.4274 0.786198 15.3916C1.29204 15.1244 1.92574 14.9214 2.5661 14.7709C3.44692 14.5638 4.34171 14.4551 4.93014 14.4142ZM4.74163 12.7181C4.80786 12.7561 4.83104 12.8411 4.79324 12.9079C4.75544 12.9746 4.67095 12.9979 4.60472 12.9599C4.08681 12.662 3.34829 12.3313 2.54482 12.0574C1.85173 11.8211 1.1113 11.6275 0.424562 11.5345C0.348645 11.5243 0.295442 11.4541 0.305606 11.3777C0.315612 11.3013 0.385491 11.2478 0.461407 11.2579C1.16562 11.3531 1.92399 11.5515 2.6336 11.7936C3.4528 12.0728 4.20894 12.4117 4.74163 12.7181Z" fill="#FF6841"/>
<path fill-rule="evenodd" clip-rule="evenodd" d="M19.4227 21.171C18.5174 20.9233 17.6896 20.6529 17.0049 20.4024C18.0082 21.6148 18.5633 24.2357 18.9678 24.28C19.1665 24.3017 19.7243 22.4685 19.4227 21.171ZM22.3542 21.8097C21.6576 21.7001 20.9667 21.5584 20.304 21.3984C21.0789 21.9048 21.1527 23.9848 21.5463 23.9698C21.9441 23.9548 22.3724 22.4727 22.3724 21.9676C22.3724 21.9175 22.3659 21.8646 22.3542 21.8097Z" fill="#E65535"/>
<path fill-rule="evenodd" clip-rule="evenodd" d="M13.3656 4.08339C12.3869 4.05766 11.4188 4.11119 10.4868 4.26382C8.79869 5.26744 7.21747 6.97744 8.14593 6.88044C8.36638 6.85726 10.439 5.86994 11.8326 4.95852C12.3426 4.62499 12.9017 4.32775 13.3656 4.08339ZM18.7799 4.92672C17.6483 4.6178 16.4605 4.37249 15.2633 4.22642C12.9873 5.46945 10.9779 7.59352 12.2214 7.6338C12.6604 7.64802 14.3017 6.68003 15.9305 5.91725C16.7728 5.52283 17.8686 5.2219 18.7799 4.92672Z" fill="#E65535"/>
</svg>
